<?xml version="1.0" encoding="UTF-8"?>
<svg id="Layer_2" data-name="Layer 2" xmlns="http://www.w3.org/2000/svg" viewBox="0 0 526.78 125.65">
  <defs>
    <style>
    </style>
  </defs>
  <g id="Capa_1" data-name="Capa 1">
    <g>
      <path class="cls-2" d="m227.07,24.93c-52.24-.71-52.24,100.47,0,99.75,52.24.71,52.24-100.47,0-99.75Zm0,74.82c-18.99.36-18.99-50.24,0-49.88,18.99-.36,18.99,50.24,0,49.88Z"/>
      <path class="cls-2" d="m156.72,32.32v-2.39c0-2.75-2.23-4.99-4.99-4.99h-14.96c-2.75,0-4.99,2.23-4.99,4.99v89.78c0,2.75,2.23,4.99,4.99,4.99h14.96c2.75,0,4.99-2.23,4.99-4.99v-51.12c0-12.4,9.04-22.68,20.89-24.61,2.37-.39,4.05-2.55,4.05-4.96v-11.13c0-1.56-1.4-2.75-2.93-2.46-5.62,1.07-12.85,3.26-20.06,7.92-.84.54-1.94-.03-1.94-1.02Z"/>
      <path class="cls-2" d="m442.92,0h-14.96c-2.75,0-4.99,2.23-4.99,4.99v22.66c-4.22-1.8-8.96-2.79-14.24-2.72-52.24-.71-52.24,100.47,0,99.75,5.48.07,10.37-.98,14.7-2.91.79,1.72,2.51,2.92,4.53,2.92h14.96c2.75,0,4.99-2.23,4.99-4.99V4.99c0-2.75-2.23-4.99-4.99-4.99Zm-34.19,99.75c-18.99.36-18.99-50.24,0-49.88,18.99-.36,18.99,50.24,0,49.88Z"/>
      <path class="cls-2" d="m352.09,24.93h-8.73c-2.75,0-4.99,2.23-4.99,4.99v1.24c-5.58-4.01-12.4-6.34-20.48-6.23-52.24-.71-52.24,100.47,0,99.75,8.07.11,14.9-2.22,20.48-6.23v1.24c0,2.75,2.23,4.99,4.99,4.99h8.73c2.75,0,4.99-2.23,4.99-4.99V29.92c0-2.75-2.23-4.99-4.99-4.99Zm-34.19,74.82c-18.99.36-18.99-50.24,0-49.88,18.99-.36,18.99,50.24,0,49.88Z"/>
      <path class="cls-2" d="m475.94,74.81l14.11,14.11c1.95,1.95,1.95,5.11,0,7.05l-10.58,10.58c-1.95,1.95-1.95,5.11,0,7.05l10.58,10.58c1.95,1.95,5.11,1.95,7.05,0l14.11-14.11,14.11-14.11c1.95-1.95,1.95-5.11,0-7.05l-14.11-14.11-14.11-14.11c-1.95-1.95-1.95-5.11,0-7.05l10.58-10.58c1.95-1.95,1.95-5.11,0-7.05l-10.58-10.58c-1.95-1.95-5.11-1.95-7.05,0l-14.11,14.11-14.11,14.11c-1.95,1.95-1.95,5.11,0,7.05l14.11,14.11Z"/>
      <path class="cls-1" d="m42.02,111.63L1.46,71.07c-1.95-1.95-1.95-5.11,0-7.05l10.58-10.58c1.95-1.95,5.11-1.95,7.05,0l28.21,28.22c1.95,1.95,5.11,1.95,7.05,0l4.84-4.84h0l41.01-41.01c1.95-1.95,5.11-1.95,7.05,0l10.58,10.58c1.95,1.95,1.95,5.11,0,7.05l-28.65,28.65s0,0,0,0l-29.54,29.54c-4.87,4.87-12.76,4.87-17.63,0Z"/>
    </g>
  </g>
</svg>
