<?xml version="1.0" encoding="UTF-8"?>
<svg id="Layer_2" data-name="Layer 2" xmlns="http://www.w3.org/2000/svg" viewBox="0 0 238.66 294.4">
  <defs>
    <style>
  
    </style>
  </defs>
  <g id="Capa_1" data-name="Capa 1">
    <g>
      <path class="list-white-1" d="m120.33,83.02c29.48,0,58.97-.06,88.45.03,13.89.04,17.4,3.92,16.41,17.63-4.24,58.74-8.48,117.48-12.75,176.22-1.11,15.26-3.56,17.48-19.03,17.49-49.85.01-99.7.02-149.55,0-13.29,0-16.04-2.2-17.04-15.55-3.4-45.11-6.52-90.24-9.77-135.36-1.07-14.84-2.24-29.67-3.3-44.51-.79-11.13,3.26-15.78,14.48-15.83,30.7-.14,61.4-.05,92.1-.05,0-.02,0-.05,0-.07Z"/>
      <path class="list-white-1" d="m73.51,41.52c0-5.48-.1-10,.02-14.52.41-15.01,10.68-26.07,25.6-26.63,13.34-.5,26.74-.47,40.08-.02,15.65.53,25.81,11.31,26.15,26.91.1,4.49.01,8.99.01,14.72,17.68,0,34.57-.01,51.46,0,3.95,0,7.98-.4,11.82.28,6.41,1.14,10.16,5.05,10,12-.15,6.59-4,9.85-9.93,11.16-1.75.38-3.63.22-5.45.22-69.25-.03-138.5-.09-207.75-.1-6.46,0-12.37-1.02-14.79-7.98-2.94-8.47,3.08-15.47,13.45-15.56,17.61-.16,35.23-.04,52.84-.07,1.77,0,3.54-.22,6.47-.41Zm68.29.22c.21-2.72.23-4.81.55-6.85,1.32-8.65-2.09-11.89-10.96-11.1-8.42.75-16.99.65-25.42.02-7.93-.59-10.4,2.78-9.52,9.99.31,2.59.49,5.19.74,7.94h44.62Z"/>
    </g>
  </g>
</svg>