<?xml version="1.0" encoding="UTF-8"?>
<svg id="Layer_2" data-name="Layer 2" xmlns="http://www.w3.org/2000/svg" viewBox="0 0 227.96 263.76">
  <defs>
    <style>
      .list-white-1 {
        font-family: AmazonEmberCdRC-Bold, 'Amazon Ember Cd RC';
        font-size: 120px;
        font-weight: 700;
      }
    </style>
  </defs>
  <g id="Capa_1" data-name="Capa 1">
    <g>
      <path class="list-white-1" d="m202.53,263.76c-4.33,0-8.66-1.13-12.62-3.39l-39.36-22.48H15.24c-3.31,0-6-2.69-6-6V31.87c0-3.31,2.69-6,6-6h135.31L189.91,3.39c13.15-7.51,30.47-2.54,38.05,14.91v219.99c0,9.17-4.74,17.39-12.67,22-3.99,2.32-8.38,3.47-12.77,3.48Zm-47.81-206.54H40.59v143.32c0,3.31,2.69,6,6,6h108.13c2.73,0,5.41.71,7.78,2.06l25.14,14.36c4,2.29,8.98-.6,8.98-5.21V46c0-4.61-4.98-7.49-8.98-5.21l-25.14,14.36c-2.37,1.35-5.05,2.06-7.78,2.06Zm50.75-26.61s0,0,0,0c0,0,0,0,0,0Zm-7.78-13.61h.03-.03Z"/>
      <text class="list-white-1" transform="translate(64.53 171.39)"><tspan x="0" y="0">R</tspan></text>
    </g>
    <path class="list-white-1" d="m158.05,196.87c-5.78,0-10.46-6.17-10.46-13.79v-102.39c0-7.62,4.68-13.79,10.46-13.79s10.46,6.17,10.46,13.79v102.39c0,7.62-4.68,13.79-10.46,13.79Z"/>
  </g>
</svg>