<?xml version="1.0" encoding="UTF-8"?>
<svg id="Layer_2" data-name="Layer 2" xmlns="http://www.w3.org/2000/svg" viewBox="0 0 227.76 300">
  <defs>
    <style>

    </style>
  </defs>
  <g id="Capa_1" data-name="Capa 1">
    <g>
      <path class="cls-1" d="m88.54,83.18s0,0,0,0l49.92-49.92c3.39-3.39,3.39-8.89,0-12.29L120.03,2.55c-3.39-3.39-8.89-3.39-12.29,0l-49.92,49.92h0L6.36,103.92c-8.48,8.48-8.48,22.24,0,30.72l70.66,70.66c3.39,3.39,8.89,3.39,12.29,0l18.43-18.43c3.39-3.39,3.39-8.89,0-12.29l-49.15-49.15c-3.39-3.39-3.39-8.89,0-12.29l29.95-29.95Z"/>
      <path class="cls-2" d="m221.4,165.36l-70.66-70.66c-3.39-3.39-8.89-3.39-12.29,0l-18.43,18.43c-3.39,3.39-3.39,8.89,0,12.29l49.15,49.15c3.39,3.39,3.39,8.89,0,12.29l-8.44,8.44h0l-71.43,71.43c-3.39,3.39-3.39,8.89,0,12.29l18.43,18.43c3.39,3.39,8.89,3.39,12.29,0l49.92-49.92s0,0,0,0l51.46-51.46c8.48-8.48,8.48-22.24,0-30.72Z"/>
    </g>
  </g>
</svg>