<?xml version="1.0" encoding="UTF-8"?>
<svg id="Layer_2" data-name="Layer 2" xmlns="http://www.w3.org/2000/svg" viewBox="0 0 110.28 118.08">
  <defs>
    <style>
      .cls-1 {
      }
    </style>
  </defs>
  <g id="Capa_1" data-name="Capa 1">
    <path class="cls-1" d="m69.28,48.8L22.18,1.7c-2.26-2.26-5.93-2.26-8.19,0L1.7,13.98c-2.26,2.26-2.26,5.93,0,8.19l32.77,32.77c2.26,2.26,2.26,5.93,0,8.19l-5.63,5.63-10.76,10.76L1.7,95.9c-2.26,2.26-2.26,5.93,0,8.19l12.29,12.29c2.26,2.26,5.93,2.26,8.19,0l12.8-12.8s0,0,0,0l3.58-3.58,30.72-30.72c5.66-5.66,5.66-14.82,0-20.48Z"/>
    <path class="cls-1" d="m75.82,63.14c-2.26-2.26-2.26-5.93,0-8.19l16.38-16.38,3.58-3.58s0,0,0,0l12.8-12.8c2.26-2.26,2.26-5.93,0-8.19l-12.29-12.29c-2.26-2.26-5.93-2.26-8.19,0l-12.8,12.8-3.58,3.58-30.72,30.72c-5.66,5.66-5.66,14.82,0,20.48l47.1,47.1c2.26,2.26,5.93,2.26,8.19,0l12.29-12.29c2.26-2.26,2.26-5.93,0-8.19l-32.77-32.77Z"/>
  </g>
</svg>